<?xml version="1.0" standalone="no"?>
<!DOCTYPE svg PUBLIC "-//W3C//DTD SVG 20010904//EN"
 "http://www.w3.org/TR/2001/REC-SVG-20010904/DTD/svg10.dtd">
<svg version="1.0" xmlns="http://www.w3.org/2000/svg"
 width="2000.000000pt" height="2000.000000pt" viewBox="0 0 2000.000000 2000.000000"
 preserveAspectRatio="xMidYMid meet">

<g transform="translate(0.000000,2000.000000) scale(0.100000,-0.100000)"
fill="#000000" stroke="none">
<path d="M6925 14945 c-7 -5 -25 -41 -40 -80 -14 -38 -33 -84 -41 -102 -8 -17
-14 -36 -14 -43 0 -7 -7 -26 -14 -43 -16 -34 -49 -127 -67 -187 -6 -19 -15
-39 -19 -45 -8 -10 -25 -53 -112 -285 -22 -58 -46 -118 -54 -135 -7 -16 -20
-48 -28 -70 -7 -22 -24 -65 -36 -95 -12 -30 -29 -73 -36 -95 -8 -22 -21 -53
-28 -70 -15 -32 -136 -344 -169 -435 -25 -70 -54 -143 -78 -198 -10 -23 -19
-47 -19 -53 0 -6 -7 -25 -15 -42 -13 -31 -24 -57 -59 -157 -9 -25 -21 -54 -26
-65 -33 -74 -70 -165 -70 -177 0 -7 -7 -22 -15 -32 -8 -11 -15 -27 -15 -35 0
-9 -11 -38 -25 -66 -13 -27 -25 -57 -25 -65 0 -9 -6 -24 -14 -35 -7 -11 -17
-31 -21 -45 -7 -27 -51 -143 -65 -175 -17 -37 -98 -250 -105 -275 -4 -14 -14
-34 -21 -45 -8 -11 -14 -26 -14 -34 0 -7 -9 -32 -19 -55 -10 -23 -40 -97 -66
-166 -26 -69 -56 -143 -66 -166 -10 -23 -19 -49 -19 -58 0 -9 -9 -34 -20 -56
-11 -22 -20 -45 -20 -52 0 -7 -9 -30 -20 -51 -11 -20 -20 -42 -20 -48 0 -5
-12 -36 -26 -67 -41 -91 -51 -114 -72 -172 -44 -123 -74 -204 -146 -385 -41
-104 -87 -221 -101 -260 -15 -38 -35 -88 -45 -110 -9 -22 -29 -74 -45 -115
-15 -41 -36 -93 -46 -116 -11 -22 -19 -48 -19 -57 0 -9 -4 -18 -9 -22 -5 -3
-15 -22 -21 -43 -12 -38 -94 -252 -110 -287 -5 -11 -16 -38 -24 -60 -8 -22
-24 -65 -36 -95 -12 -30 -28 -73 -36 -95 -8 -22 -21 -52 -29 -67 -8 -14 -15
-32 -15 -38 0 -7 -9 -31 -19 -54 -10 -23 -42 -102 -71 -176 -28 -74 -58 -149
-66 -167 -8 -17 -14 -35 -14 -40 -1 -4 -9 -26 -20 -48 -11 -22 -19 -46 -20
-52 0 -7 -9 -32 -19 -55 -32 -73 -94 -233 -166 -428 -15 -41 -32 -86 -38 -100
-6 -14 -18 -45 -27 -70 -10 -25 -28 -70 -40 -100 -12 -30 -29 -73 -36 -95 -8
-22 -22 -56 -31 -75 -8 -19 -23 -53 -33 -75 -10 -22 -29 -71 -43 -110 -14 -38
-54 -142 -88 -230 -34 -88 -80 -207 -102 -265 -48 -129 -73 -192 -98 -248 -10
-23 -19 -48 -19 -54 0 -6 -8 -29 -19 -52 -25 -54 -45 -105 -131 -326 -39 -102
-78 -199 -86 -217 -8 -17 -14 -35 -14 -40 0 -4 -17 -48 -39 -98 -21 -49 -48
-117 -60 -150 -13 -33 -31 -80 -41 -105 -10 -25 -39 -101 -65 -170 -27 -69
-56 -143 -66 -166 -11 -22 -19 -46 -19 -52 0 -7 -9 -29 -20 -49 -11 -21 -20
-43 -20 -49 0 -6 -12 -37 -26 -68 -17 -37 -22 -61 -16 -71 7 -14 114 -16 1056
-15 577 0 1055 4 1063 9 14 7 40 70 64 151 6 19 17 49 25 67 8 17 14 37 14 45
0 8 8 30 19 50 10 20 21 52 25 70 7 35 53 157 66 173 4 6 11 26 15 45 4 19 16
54 26 77 11 23 19 47 19 53 0 7 7 26 15 43 8 18 21 52 29 77 8 25 26 77 41
115 14 39 32 90 40 115 8 25 26 77 40 115 15 39 33 88 40 110 8 22 26 72 40
110 15 39 33 88 40 110 8 22 26 72 40 110 15 39 33 90 41 115 8 25 18 54 24
65 11 22 34 87 56 155 8 25 21 59 29 77 8 17 15 37 15 45 0 7 6 25 14 40 8 14
19 43 26 65 15 47 48 138 65 178 7 17 20 50 28 75 24 73 47 133 62 167 8 17
15 37 15 45 1 7 9 31 20 53 11 22 19 46 20 52 0 7 8 32 19 55 19 45 43 114 66
188 7 25 25 77 40 115 14 39 32 90 40 115 8 25 26 77 40 115 15 39 33 88 40
110 7 22 20 54 29 70 9 17 16 37 16 45 0 8 9 33 20 55 11 22 19 46 20 53 0 7
8 34 19 60 17 44 30 78 79 215 11 28 38 99 60 157 22 58 45 121 51 140 16 56
51 152 67 187 7 17 14 37 14 45 1 7 9 31 20 53 11 22 19 47 20 55 0 8 9 32 20
53 11 20 20 44 20 53 0 9 7 30 15 47 8 18 21 52 29 77 8 25 26 77 41 115 14
39 32 90 39 115 8 25 21 59 30 75 9 17 16 36 16 43 0 8 6 28 14 45 8 18 19 48
25 67 14 50 50 151 61 175 5 11 23 63 40 115 17 52 37 109 45 127 8 17 15 36
15 43 0 6 8 32 19 58 49 122 101 260 110 292 5 19 22 67 36 105 15 39 33 90
41 115 8 25 18 54 24 65 5 11 23 63 40 115 17 52 37 109 45 127 8 17 15 36 15
43 0 7 7 26 15 43 8 18 21 52 29 77 8 25 26 77 41 115 14 39 31 86 36 105 12
40 54 150 75 197 8 17 14 38 14 47 0 8 8 35 19 58 10 24 24 59 31 78 6 19 30
86 51 149 25 70 48 120 62 131 25 21 30 16 46 -46 14 -56 40 -134 56 -169 8
-16 18 -46 24 -65 5 -19 22 -66 36 -105 38 -102 64 -173 85 -235 10 -30 30
-86 45 -125 14 -38 32 -89 40 -111 7 -23 18 -50 23 -60 9 -17 22 -51 84 -221
10 -29 28 -79 40 -110 11 -32 29 -79 39 -105 11 -26 19 -53 19 -60 1 -7 9 -31
20 -53 11 -22 19 -46 20 -53 0 -7 8 -34 19 -60 10 -26 27 -72 38 -102 49 -132
86 -226 93 -235 5 -5 11 -28 15 -50 4 -22 13 -51 20 -65 7 -14 25 -59 40 -100
15 -41 36 -96 46 -122 11 -26 19 -53 19 -60 1 -7 9 -31 20 -53 11 -22 20 -47
20 -55 0 -8 9 -33 20 -55 11 -22 19 -46 20 -53 0 -7 8 -34 19 -60 10 -26 27
-72 38 -102 11 -30 33 -89 48 -130 15 -41 33 -88 40 -105 30 -71 65 -166 65
-176 0 -6 7 -25 15 -42 8 -18 21 -52 30 -77 26 -71 52 -139 80 -215 14 -38 31
-88 37 -110 6 -22 17 -49 25 -60 7 -11 13 -26 13 -35 0 -9 9 -33 19 -54 11
-21 23 -52 27 -69 4 -18 12 -45 19 -62 7 -16 24 -61 38 -100 46 -126 78 -209
93 -242 8 -17 14 -36 14 -42 0 -6 7 -25 15 -43 13 -31 31 -76 92 -243 14 -38
31 -83 38 -100 19 -44 52 -136 60 -165 4 -14 13 -38 20 -55 7 -16 20 -50 28
-75 8 -25 25 -70 37 -100 20 -52 35 -92 75 -200 9 -25 22 -59 30 -77 8 -17 15
-36 15 -41 0 -6 21 -64 46 -129 26 -65 56 -143 66 -173 11 -30 26 -68 34 -85
7 -16 16 -43 20 -60 4 -16 15 -46 26 -65 10 -19 18 -42 18 -50 1 -8 9 -33 20
-55 11 -22 20 -47 20 -55 0 -8 9 -33 20 -55 11 -22 19 -46 20 -53 0 -8 6 -28
14 -45 22 -49 66 -163 66 -171 0 -5 6 -22 14 -39 14 -31 38 -92 93 -242 41
-112 104 -276 125 -330 79 -196 137 -349 144 -380 4 -16 10 -34 14 -40 5 -5
15 -33 23 -61 8 -28 20 -60 25 -70 18 -35 62 -154 62 -169 0 -7 10 -21 22 -29
20 -14 141 -16 1105 -16 1064 0 1082 0 1088 20 3 10 0 32 -8 47 -8 15 -27 60
-42 98 -15 39 -35 88 -45 110 -10 22 -39 96 -65 165 -26 69 -56 143 -66 166
-10 23 -19 45 -19 50 0 6 -16 48 -36 94 -20 47 -39 97 -44 111 -4 14 -12 34
-18 45 -13 22 -76 176 -101 244 -9 25 -19 50 -23 55 -3 6 -20 48 -38 95 -18
47 -40 103 -50 125 -9 22 -27 65 -39 95 -13 30 -29 69 -37 85 -7 17 -20 48
-27 70 -20 56 -74 192 -98 243 -10 23 -19 47 -19 53 0 6 -6 25 -14 42 -8 18
-31 75 -51 127 -21 52 -40 100 -45 105 -4 6 -11 21 -15 35 -8 29 -90 241 -111
287 -8 17 -14 34 -14 38 0 4 -6 21 -14 38 -8 18 -28 66 -45 107 -17 41 -38 88
-46 103 -8 16 -15 34 -15 40 0 7 -9 29 -20 50 -11 20 -20 43 -20 49 0 7 -12
36 -25 63 -14 28 -25 56 -25 63 0 6 -9 29 -20 49 -11 21 -20 43 -20 50 0 7 -9
32 -19 55 -10 24 -29 68 -41 98 -12 30 -31 73 -41 96 -11 23 -19 45 -19 49 0
4 -6 21 -14 38 -8 18 -49 120 -91 227 -42 107 -83 209 -91 227 -8 17 -14 36
-14 43 0 7 -6 24 -14 38 -23 43 -66 143 -66 156 -1 6 -9 29 -20 51 -11 22 -19
44 -20 48 0 5 -6 23 -14 40 -8 18 -40 97 -71 176 -31 79 -61 151 -66 160 -10
18 -73 172 -96 236 -8 22 -18 44 -22 50 -5 5 -14 27 -21 48 -7 22 -18 51 -26
65 -8 15 -14 31 -14 35 0 5 -6 23 -14 40 -24 53 -106 263 -106 272 0 4 -9 26
-19 49 -10 23 -40 97 -66 166 -26 69 -56 143 -66 166 -10 23 -19 47 -19 54 0
6 -6 24 -14 38 -8 15 -26 55 -40 90 -14 34 -38 90 -52 125 -14 34 -32 74 -40
89 -8 14 -14 32 -14 38 0 7 -9 31 -19 54 -10 23 -54 129 -96 236 -87 220 -106
268 -136 343 -12 28 -27 70 -35 92 -8 22 -21 52 -29 67 -8 14 -15 32 -15 40 0
7 -7 26 -15 42 -9 16 -47 111 -86 210 -39 100 -88 222 -109 271 -22 50 -42
101 -46 115 -4 14 -13 34 -20 45 -8 11 -14 26 -14 35 0 8 -9 32 -20 53 -11 20
-20 43 -20 50 0 7 -9 29 -20 50 -11 20 -20 43 -20 50 0 7 -9 29 -20 50 -11 20
-20 43 -20 49 0 7 -7 26 -16 43 -16 32 -127 304 -150 370 -8 22 -19 49 -24 60
-5 11 -21 52 -36 90 -14 39 -34 88 -44 110 -10 22 -30 74 -45 115 -16 41 -36
93 -46 116 -11 22 -19 46 -19 52 0 7 -9 29 -20 49 -11 21 -20 43 -20 50 0 11
-11 37 -61 149 -11 23 -19 45 -19 50 0 5 -6 21 -14 36 -8 14 -19 43 -26 63 -7
20 -18 49 -26 63 -8 15 -14 31 -14 36 0 5 -9 27 -19 50 -10 23 -36 85 -56 138
-20 53 -42 104 -49 113 -11 15 -104 16 -1085 18 -704 1 -1078 -1 -1086 -8z"/>
<path d="M10959 14946 c-13 -14 -11 -37 7 -71 8 -16 58 -137 111 -269 94 -237
108 -272 143 -351 10 -22 30 -71 45 -110 30 -80 60 -148 81 -187 8 -14 14 -32
14 -40 0 -7 7 -26 16 -43 9 -16 31 -68 49 -115 18 -47 40 -98 49 -115 9 -16
16 -36 16 -43 0 -6 9 -29 20 -49 11 -21 20 -44 20 -51 0 -8 6 -26 14 -40 8
-15 26 -55 40 -89 53 -129 78 -189 91 -218 7 -16 25 -59 40 -95 14 -36 30 -73
35 -82 5 -9 25 -56 44 -105 19 -48 41 -101 50 -118 9 -16 16 -35 16 -42 0 -6
7 -24 15 -40 8 -15 26 -57 41 -93 40 -100 63 -151 84 -192 11 -20 20 -43 20
-50 0 -7 12 -35 25 -63 14 -27 25 -57 25 -66 0 -8 4 -19 9 -25 5 -5 25 -49 44
-99 20 -49 42 -103 51 -120 9 -16 16 -37 16 -45 0 -9 6 -24 14 -35 7 -11 17
-31 21 -45 4 -14 13 -38 20 -55 7 -16 25 -59 40 -95 15 -36 35 -83 45 -105 10
-22 21 -51 25 -65 4 -14 11 -30 15 -35 5 -6 15 -28 23 -50 28 -76 90 -226 142
-340 7 -16 25 -59 40 -95 25 -61 39 -93 78 -180 9 -19 37 -89 62 -155 26 -66
54 -133 62 -150 8 -16 39 -93 69 -169 31 -76 60 -146 64 -155 5 -9 23 -50 40
-91 17 -41 35 -83 40 -92 6 -10 16 -35 24 -55 23 -64 86 -217 96 -235 5 -9 25
-56 44 -105 19 -48 41 -101 50 -118 9 -16 16 -35 16 -40 0 -6 9 -28 20 -50 11
-22 20 -45 20 -53 0 -8 6 -26 14 -40 26 -48 66 -141 66 -152 0 -7 7 -24 14
-38 19 -34 48 -102 93 -217 19 -49 39 -94 44 -100 5 -5 9 -15 9 -23 0 -7 10
-37 23 -65 13 -29 34 -77 47 -107 12 -30 31 -73 41 -96 11 -23 19 -45 19 -49
0 -4 9 -26 19 -49 10 -23 31 -70 45 -106 15 -36 31 -73 37 -82 5 -10 15 -35
23 -55 7 -21 39 -101 70 -178 52 -129 73 -178 111 -260 8 -16 28 -64 45 -105
17 -41 37 -88 45 -105 7 -16 22 -52 33 -80 36 -91 74 -179 93 -221 10 -22 19
-47 19 -55 0 -8 4 -19 9 -25 8 -8 69 -154 106 -254 8 -19 20 -48 29 -65 9 -16
16 -37 16 -45 0 -9 6 -24 14 -35 7 -11 17 -31 21 -45 4 -14 15 -43 25 -65 10
-22 30 -69 45 -105 14 -36 33 -78 40 -95 7 -16 25 -59 40 -95 14 -36 30 -73
35 -82 5 -9 25 -56 44 -105 19 -48 41 -101 50 -118 9 -16 16 -37 16 -45 0 -9
6 -24 14 -35 7 -11 17 -31 21 -45 4 -14 15 -43 25 -65 10 -22 30 -69 45 -105
14 -36 33 -77 41 -92 8 -14 14 -32 14 -40 0 -7 12 -35 25 -63 14 -27 25 -57
25 -66 0 -8 4 -19 9 -25 5 -5 26 -51 46 -102 19 -51 40 -101 45 -110 5 -9 21
-46 36 -82 55 -136 73 -168 97 -174 28 -7 1784 -7 1810 0 23 7 22 47 -3 101
-36 77 -58 127 -90 203 -17 41 -37 90 -45 108 -8 18 -15 38 -15 45 0 7 -9 29
-20 50 -11 20 -20 42 -20 48 0 7 -9 30 -19 53 -33 72 -71 163 -71 172 0 4 -9
27 -20 51 -11 24 -29 64 -41 91 -11 26 -26 61 -34 77 -8 17 -28 64 -45 105
-17 41 -37 89 -45 105 -7 17 -16 41 -20 55 -4 14 -11 30 -15 35 -4 6 -20 42
-35 80 -28 70 -60 145 -96 221 -10 23 -19 46 -19 52 0 6 -7 23 -15 39 -8 15
-26 57 -41 93 -56 140 -67 167 -84 210 -49 125 -106 261 -131 316 -10 22 -19
46 -19 53 0 7 -7 25 -15 39 -14 27 -43 91 -85 192 -12 30 -31 73 -41 96 -11
23 -19 44 -19 48 0 4 -12 33 -26 64 -40 88 -50 112 -79 182 -15 36 -33 79 -40
95 -41 88 -69 156 -130 310 -36 94 -72 184 -80 200 -7 17 -25 62 -39 100 -15
39 -34 84 -42 102 -8 17 -14 35 -14 40 -1 4 -9 26 -20 48 -11 22 -19 44 -20
48 0 5 -12 34 -26 65 -14 31 -35 77 -46 102 -10 25 -25 59 -33 75 -8 17 -28
64 -45 105 -17 41 -37 89 -45 105 -7 17 -25 59 -40 95 -14 36 -33 77 -41 92
-8 14 -14 32 -14 40 0 7 -7 27 -16 43 -9 17 -31 71 -51 120 -19 50 -38 95 -42
100 -4 6 -19 42 -34 80 -65 173 -91 240 -132 330 -7 17 -25 59 -40 95 -15 36
-33 79 -40 95 -7 17 -34 80 -60 140 -25 61 -55 128 -66 151 -10 23 -19 48 -19
55 0 8 -6 23 -14 34 -7 11 -17 31 -21 45 -4 14 -13 39 -20 55 -8 17 -28 64
-45 105 -17 41 -38 91 -47 110 -41 91 -53 120 -78 180 -14 36 -30 72 -35 81
-5 9 -34 81 -65 160 -31 79 -60 153 -65 164 -5 11 -21 49 -35 85 -15 36 -33
80 -41 98 -8 19 -30 73 -48 120 -39 99 -102 249 -116 274 -5 9 -25 56 -44 105
-19 49 -41 102 -49 118 -20 41 -40 87 -77 175 -17 41 -37 89 -45 105 -7 17
-16 41 -20 55 -4 14 -11 30 -15 35 -4 6 -29 64 -55 130 -26 66 -58 143 -71
171 -13 28 -24 57 -24 65 -1 8 -9 32 -20 54 -11 22 -19 46 -20 53 0 8 -6 26
-14 40 -14 25 -36 78 -86 202 -33 81 -111 265 -120 282 -5 9 -25 58 -45 108
-20 50 -40 99 -45 108 -5 9 -23 51 -40 92 -17 41 -37 89 -45 105 -7 17 -22 53
-33 80 -11 28 -38 93 -60 145 -22 52 -54 133 -72 180 -18 47 -36 90 -40 95 -4
6 -10 24 -14 40 -4 17 -17 45 -28 62 l-20 33 -914 2 c-568 2 -919 -1 -925 -6z"/>
</g>
</svg>
